<svg width="20" height="14" viewBox="0 0 7 5" fill="none" xmlns="http://www.w3.org/2000/svg">
<path d="M0.732086 1.34127C1.94949 1.57881 3.16935 2.04206 4.41125 2.04206C4.99092 2.04206 5.57058 2.04206 6.15025 2.04206C6.32832 2.04206 5.91567 1.77382 5.80634 1.63326C5.64972 1.43189 5.31521 0.993875 5.10555 0.874071C4.9991 0.813244 4.67869 0.550683 4.7292 0.640473C4.84586 0.847873 5.02942 1.03154 5.19639 1.19851C5.50923 1.51135 5.81495 1.81707 6.13078 2.1329C6.60335 2.60547 5.97173 2.74324 5.61168 3.06729C5.39508 3.26223 4.62212 3.79404 4.35285 3.79404" stroke="#4B9CD3" stroke-linecap="round" stroke-dasharray="2 4 6 8"/>
<path d="M4.58642 2.04208C3.96572 2.04208 2.57232 2.29842 2.13365 1.75008C1.80943 1.34481 0.810754 1.34376 0.615265 0.757294" stroke="#4B9CD3" stroke-linecap="round" stroke-dasharray="2 4 6 8"/>
</svg>
